<?xml version="1.0" standalone="no"?>
<!DOCTYPE svg PUBLIC "-//W3C//DTD SVG 20010904//EN"
 "http://www.w3.org/TR/2001/REC-SVG-20010904/DTD/svg10.dtd">
<svg version="1.0" xmlns="http://www.w3.org/2000/svg"
 width="200.000000pt" height="200.000000pt" viewBox="0 0 200.000000 200.000000"
 preserveAspectRatio="xMidYMid meet">

<g transform="translate(0.000000,200.000000) scale(0.100000,-0.100000)"
fill="#000000" stroke="none">
<path d="M884 1986 c-147 -24 -360 -99 -332 -117 7 -5 24 -9 38 -9 41 0 141
-28 198 -56 l52 -25 0 -140 c0 -89 -4 -139 -10 -139 -6 0 -27 8 -48 19 -62 31
-200 71 -249 71 -87 0 -136 -44 -136 -123 0 -36 46 -80 102 -98 77 -26 219
-87 253 -110 19 -13 56 -48 80 -77 56 -65 78 -136 78 -248 0 -223 -69 -368
-206 -434 -64 -30 -234 -39 -339 -17 l-70 15 45 -41 c141 -126 302 -220 433
-252 83 -20 195 -30 232 -21 l27 7 -6 152 c-3 84 -6 287 -7 452 l-1 300 56 3
56 3 0 -451 c0 -340 3 -450 12 -450 6 0 46 9 87 21 109 29 265 108 342 172
210 175 333 483 316 796 -10 181 -37 253 -157 416 l-55 75 -92 0 -93 0 0 -434
c0 -239 -3 -436 -7 -438 -5 -2 -59 -2 -120 0 l-113 3 0 292 c0 161 -3 356 -7
435 l-6 142 -139 0 -138 0 0 78 c0 42 -3 87 -6 99 l-6 23 243 2 244 3 -85 33
c-180 72 -320 92 -466 68z"/>
<path d="M113 1308 c-13 -21 -16 -299 -4 -379 25 -158 26 -160 178 -205 104
-31 261 -39 306 -15 32 17 47 57 47 125 0 91 -54 147 -198 206 -167 69 -215
107 -281 225 -34 59 -36 61 -48 43z"/>
<path d="M1920 742 c0 -7 5 -22 10 -33 9 -16 7 -19 -9 -19 -11 0 -23 -5 -26
-10 -4 -7 8 -10 32 -9 21 1 46 -1 56 -5 10 -5 17 -4 17 2 0 6 -8 13 -17 16
-10 4 -28 21 -40 38 -13 18 -23 27 -23 20z"/>
<path d="M53 729 c-7 -7 -9 -25 -6 -42 5 -23 3 -29 -8 -25 -8 3 -15 13 -15 24
-3 37 -5 39 -15 21 -21 -36 17 -81 47 -56 8 7 13 21 12 33 -2 11 2 21 7 21 6
0 9 -8 8 -17 -2 -10 2 -18 7 -18 14 0 12 44 -2 58 -15 15 -21 15 -35 1z"/>
<path d="M78 639 c-21 -11 -38 -24 -38 -29 0 -6 19 -1 43 11 51 26 50 26 40
32 -4 3 -25 -4 -45 -14z"/>
<path d="M1876 634 c-9 -8 -16 -23 -16 -33 0 -22 30 -51 53 -51 23 0 47 28 47
55 0 26 -29 42 -42 23 -13 -22 -9 -30 13 -23 18 6 20 5 10 -14 -12 -22 -20
-25 -45 -15 -21 8 -20 33 1 56 20 22 1 24 -21 2z"/>
<path d="M92 604 l-42 -25 17 -27 c25 -40 26 -40 19 -5 -6 26 -4 32 12 38 21
6 48 33 41 40 -3 2 -24 -7 -47 -21z"/>
<path d="M137 534 c-43 -29 -51 -55 -9 -29 56 37 63 43 54 49 -5 3 -25 -6 -45
-20z"/>
<path d="M1823 548 c-6 -7 -13 -18 -16 -24 -9 -16 30 -64 52 -64 21 0 51 30
51 52 0 36 -66 63 -87 36z m57 -23 c16 -19 6 -45 -18 -45 -25 0 -46 25 -38 45
7 19 40 19 56 0z"/>
<path d="M145 500 c-34 -37 9 -106 49 -77 15 11 15 14 2 32 -15 20 -15 20 -16
-2 0 -16 -4 -21 -15 -17 -19 8 -19 38 0 54 18 15 45 6 45 -14 0 -8 5 -18 10
-21 16 -10 11 32 -6 49 -21 22 -47 20 -69 -4z"/>
<path d="M223 428 c-33 -38 -36 -48 -17 -69 23 -26 35 -24 67 9 37 38 34 53
-2 18 -18 -17 -36 -26 -45 -23 -22 9 -20 20 9 47 14 13 25 27 25 32 0 15 -16
8 -37 -14z"/>
<path d="M1750 443 c0 -5 16 -21 35 -36 l36 -28 19 23 c11 13 19 26 20 31 0
13 -18 7 -24 -8 -8 -21 -30 -19 -51 5 -18 20 -35 26 -35 13z"/>
<path d="M1706 404 c-32 -31 -11 -84 32 -84 51 0 71 50 34 83 -23 21 -46 22
-66 1z m52 -16 c16 -16 15 -45 0 -51 -20 -7 -48 12 -48 32 0 31 25 42 48 19z"/>
<path d="M278 346 c-29 -36 -27 -57 4 -29 17 15 18 14 18 -20 0 -21 5 -37 10
-37 6 0 10 11 10 25 0 14 3 24 8 24 36 -6 44 27 14 54 -25 23 -33 21 -64 -17z
m59 -1 c3 -9 3 -19 -1 -22 -8 -9 -37 18 -30 28 8 14 24 11 31 -6z"/>
<path d="M1665 330 c23 -26 15 -33 -20 -20 -20 8 -32 7 -44 -2 -9 -7 -18 -14
-20 -15 -2 -1 1 -9 8 -16 17 -21 -13 -45 -34 -27 -28 23 -28 2 0 -34 29 -39
53 -49 35 -16 -6 11 -8 25 -5 30 9 15 32 12 39 -6 3 -8 11 -12 16 -9 7 4 1 20
-16 42 -33 44 -26 52 11 13 16 -17 33 -30 39 -30 5 0 -1 11 -14 25 -27 28 -27
28 17 16 45 -13 52 4 17 40 -31 32 -58 41 -29 9z"/>
<path d="M354 285 c-30 -40 -25 -61 6 -24 30 35 42 59 31 59 -6 0 -22 -16 -37
-35z"/>
<path d="M416 240 c-28 -43 -31 -50 -17 -50 5 0 19 16 31 36 29 46 39 36 11
-11 -23 -40 -25 -45 -13 -45 4 0 15 12 24 28 l17 27 1 -42 c0 -24 4 -43 9 -43
12 0 53 70 48 84 -2 6 -9 1 -16 -12 -17 -32 -31 -27 -31 11 0 21 -7 36 -19 44
-17 10 -22 7 -45 -27z"/>
<path d="M1472 228 c-18 -18 -14 -53 8 -73 26 -23 70 -13 70 16 0 21 0 21 -18
-1 -17 -21 -19 -21 -35 -5 -24 23 -22 55 3 55 11 0 20 5 20 10 0 14 -33 13
-48 -2z"/>
<path d="M539 194 c-10 -12 -8 -19 10 -37 11 -13 21 -26 21 -30 0 -14 -29 -6
-39 10 -11 21 -24 13 -15 -10 8 -22 42 -31 59 -17 20 17 19 26 -7 50 -12 11
-19 23 -15 26 4 4 16 -1 28 -12 21 -19 21 -19 18 0 -5 26 -44 39 -60 20z"/>
<path d="M1395 186 c-19 -13 -19 -15 -1 -55 21 -45 23 -46 61 -29 26 12 36 35
10 24 -8 -3 -22 -9 -30 -12 -9 -4 -15 0 -15 9 0 9 9 19 20 22 11 4 18 11 15
16 -4 5 -14 5 -26 -2 -31 -16 -37 0 -9 21 30 23 5 29 -25 6z"/>
<path d="M620 171 c0 -5 5 -11 11 -13 8 -3 6 -15 -4 -41 -9 -20 -12 -39 -7
-42 4 -3 15 13 24 35 11 28 20 38 31 34 27 -11 16 5 -15 21 -34 17 -40 18 -40
6z"/>
<path d="M1323 158 c-25 -12 -32 -31 -9 -22 9 4 18 -6 26 -30 6 -20 16 -36 21
-36 11 0 11 0 -2 39 -8 24 -8 35 1 46 15 18 -3 20 -37 3z"/>
<path d="M687 106 c-9 -25 -12 -48 -7 -51 5 -3 14 13 21 35 13 42 16 45 36 32
9 -6 10 -17 3 -42 -5 -18 -7 -36 -4 -39 7 -8 24 21 24 42 0 11 9 21 20 24 31
8 24 20 -16 27 -19 4 -41 9 -49 12 -8 3 -18 -11 -28 -40z"/>
<path d="M1203 122 c-9 -6 -9 -18 -1 -50 10 -39 34 -62 26 -25 -2 10 5 23 17
30 20 12 20 12 -2 13 -33 0 -37 17 -6 28 l28 10 -25 1 c-14 0 -30 -3 -37 -7z"/>
<path d="M804 96 c-3 -13 -4 -35 -2 -47 2 -19 9 -24 33 -24 25 0 31 5 39 35
12 44 10 42 30 34 13 -5 15 -15 11 -45 -3 -22 -2 -39 3 -39 5 0 12 18 16 40 7
44 36 58 36 18 0 -53 11 -68 46 -68 19 0 34 5 34 10 0 6 -14 10 -31 10 -36 0
-35 21 2 31 23 7 23 7 -4 8 -37 1 -31 24 9 32 l29 7 -31 1 c-17 0 -59 4 -92 7
-66 7 -64 8 -76 -48 -6 -26 -29 -38 -40 -20 -3 4 -1 25 4 45 9 40 -6 53 -16
13z"/>
<path d="M1111 101 c-19 -12 -17 -59 3 -79 24 -24 70 -5 74 31 6 47 -37 73
-77 48z m52 -23 c14 -21 2 -48 -22 -48 -24 0 -37 36 -20 56 14 17 28 14 42 -8z"/>
</g>
</svg>
